Coordinates
version=1
nRows=10
nColumns=27
inDegrees=yes

Units are S.I. units (second, meters, Newtons, ...)
Angles are in degrees.

endheader
time	pelvis_rotation	pelvis_list	pelvis_tilt	pelvis_tx	pelvis_ty	pelvis_tz	hip_flexion_r	hip_adduction_r	hip_rotation_r	knee_angle_r	knee_adduction_r	knee_rotation_r	ankle_angle_r	ankle_rot_r	subtalar_angle_r	mtp_angle_r	hip_flexion_l	hip_adduction_l	hip_rotation_l	knee_angle_l	knee_adduction_l	knee_rotation_l	ankle_angle_l	ankle_rot_l	subtalar_angle_l	mtp_angle_l
      0.00000000	      3.56456998	      1.67133801	      3.58341400	     -0.60756799	      0.91077058	     -0.27041149	     19.46929713	     -2.46017686	     -9.58027883	     -3.29309114	      3.66342471	     -7.01928192	      2.99611285	      2.14404919	      0.00000000	      0.00000000	    -12.05849933	      0.46594936	     -0.04885654	    -15.82931500	      8.50337941	    -11.98106691	     29.11417318	     15.05220252	      0.00000000	      0.00000000
      0.01000000	      3.69089628	      1.21351888	      3.68474878	     -0.59553968	      0.90953016	     -0.27086527	     19.58885465	     -1.92381758	     -8.62337574	     -4.83058135	      3.58052564	     -8.12168470	      2.48596560	      2.21059354	      0.00000000	      0.00000000	    -12.51790389	     -0.06877390	     -0.23682531	    -16.76414424	      8.49212173	    -11.96605789	     29.16779968	     15.15507629	      0.00000000	      0.00000000
      0.02000000	      3.76936148	      0.75188632	      3.78912004	     -0.58328226	      0.90848405	     -0.27122207	     19.72865796	     -1.36899610	     -8.01354892	     -6.56441258	      3.47661090	     -8.78111737	      1.83542218	      2.19018873	      0.00000000	      0.00000000	    -12.93004814	     -0.60902768	     -0.41733763	    -17.80855218	      8.49323017	    -12.04699052	     29.06745485	     15.29038500	      0.00000000	      0.00000000
      0.03000000	      3.80262090	      0.29409729	      3.88613874	     -0.57082460	      0.90768804	     -0.27149609	     19.88781789	     -0.80873851	     -7.83886322	     -8.39125475	      3.31601898	     -8.82441308	      1.09107495	      2.02337110	      0.00000000	      0.00000000	    -13.26001979	     -1.15026497	     -0.59428003	    -18.99770058	      8.50409152	    -12.19388159	     28.79125920	     15.45986554	      0.00000000	      0.00000000
      0.04000000	      3.79944691	     -0.15614137	      3.97698518	     -0.55822312	      0.90720264	     -0.27170442	     20.05113751	     -0.25750771	     -8.11615794	    -10.24593277	      3.07325990	     -8.07973908	      0.37267264	      1.55451843	      0.00000000	      0.00000000	    -13.47706758	     -1.69453339	     -0.77394671	    -20.37755392	      8.52023144	    -12.33925061	     28.30548777	     15.63383785	      0.00000000	      0.00000000
      0.05000000	      3.76843653	     -0.59387331	      4.06248835	     -0.54554474	      0.90706216	     -0.27186000	     20.19750680	      0.26671248	     -8.70939095	    -12.07500780	      2.75856754	     -6.73040624	     -0.19213761	      0.84594999	      0.00000000	      0.00000000	    -13.54667659	     -2.24560938	     -0.93433056	    -21.98631067	      8.55240756	    -12.50901870	     27.56847587	     15.84865637	      0.00000000	      0.00000000
      0.06000000	      3.71402867	     -1.01348034	      4.14689848	     -0.53284791	      0.90727364	     -0.27196233	     20.29750436	      0.75270305	     -9.41732750	    -13.84607368	      2.41229393	     -5.03782324	     -0.47072949	     -0.06202989	      0.00000000	      0.00000000	    -13.44027084	     -2.80658617	     -1.07007605	    -23.85912695	      8.60874641	    -12.69346576	     26.52973330	     16.09821915	      0.00000000	      0.00000000
      0.07000000	      3.63748975	     -1.41480741	      4.22937274	     -0.52018842	      0.90781527	     -0.27199894	     20.31969784	      1.20391399	     -9.98440078	    -15.50840648	      2.10363008	     -3.41176615	     -0.40305967	     -1.04390558	      0.00000000	      0.00000000	    -13.12953866	     -3.38624334	     -1.16782932	    -26.01190079	      8.70276821	    -12.92445401	     25.12210261	     16.39797657	      0.00000000	      0.00000000
      0.08000000	      3.53937777	     -1.80838076	      4.30623337	     -0.50762132	      0.90864566	     -0.27195147	     20.23232698	      1.64140544	    -10.18387625	    -16.99239428	      1.91392959	     -2.22469488	     -0.00810934	     -1.97455234	      0.00000000	      0.00000000	    -12.59169843	     -4.00262890	     -1.21358701	    -28.43741197	      8.84574166	    -13.25300444	     23.25828489	     16.77586167	      0.00000000	      0.00000000
      0.09000000	      3.42453211	     -2.21492369	      4.36508791	     -0.49519883	      0.90969846	     -0.27180648	     20.02031843	      2.09668767	     -9.91451037	    -18.23204099	      1.90136303	     -1.65930690	      0.64017095	     -2.76784389	      0.00000000	      0.00000000	    -11.80485120	     -4.68127366	     -1.19002037	    -31.10384843	      9.04259685	    -13.73554839	     20.84322943	     17.26009294	      0.00000000	      0.00000000
